<mxfile host="65bd71144e">
    <diagram id="u37TdR3Up0tB3ALFowDp" name="Data Model">
        <mxGraphModel dx="1587" dy="1601" grid="1" gridSize="10" guides="1" tooltips="1" connect="1" arrows="1" fold="1" page="1" pageScale="1" pageWidth="850" pageHeight="1100" math="0" shadow="0">
            <root>
                <mxCell id="0"/>
                <mxCell id="1" parent="0"/>
                <mxCell id="58" value="" style="rounded=0;whiteSpace=wrap;html=1;fillColor=none;" parent="1" vertex="1">
                    <mxGeometry x="-500" y="313" width="770" height="270" as="geometry"/>
                </mxCell>
                <mxCell id="60" value="" style="rounded=0;whiteSpace=wrap;html=1;fillColor=none;" parent="1" vertex="1">
                    <mxGeometry x="330" y="313" width="430" height="157" as="geometry"/>
                </mxCell>
                <mxCell id="56" value="" style="rounded=0;whiteSpace=wrap;html=1;fillColor=none;" parent="1" vertex="1">
                    <mxGeometry x="-410" y="-110" width="530" height="320" as="geometry"/>
                </mxCell>
                <mxCell id="7" value="" style="edgeStyle=none;html=1;" parent="1" source="3" target="6" edge="1">
                    <mxGeometry relative="1" as="geometry"/>
                </mxCell>
                <mxCell id="8" value="Contain 0..n" style="edgeLabel;html=1;align=center;verticalAlign=middle;resizable=0;points=[];" parent="7" vertex="1" connectable="0">
                    <mxGeometry x="-0.25" y="4" relative="1" as="geometry">
                        <mxPoint x="-32" y="-1" as="offset"/>
                    </mxGeometry>
                </mxCell>
                <mxCell id="15" value="Has 1..n" style="edgeStyle=none;html=1;entryX=1;entryY=0.5;entryDx=0;entryDy=0;" parent="1" source="3" target="19" edge="1">
                    <mxGeometry relative="1" as="geometry">
                        <mxPoint x="120" y="170" as="targetPoint"/>
                    </mxGeometry>
                </mxCell>
                <mxCell id="35" style="edgeStyle=none;html=1;exitX=0.25;exitY=1;exitDx=0;exitDy=0;entryX=0.5;entryY=0;entryDx=0;entryDy=0;" parent="1" source="3" target="24" edge="1">
                    <mxGeometry relative="1" as="geometry"/>
                </mxCell>
                <mxCell id="45" value="Maintain 0..1" style="edgeLabel;html=1;align=center;verticalAlign=middle;resizable=0;points=[];" parent="35" vertex="1" connectable="0">
                    <mxGeometry x="0.0531" relative="1" as="geometry">
                        <mxPoint as="offset"/>
                    </mxGeometry>
                </mxCell>
                <mxCell id="Kga4_0DMdmYmjc2Gxt2p-82" value="Maintain 0..n" style="edgeStyle=none;html=1;exitX=1;exitY=1;exitDx=0;exitDy=0;entryX=0.5;entryY=0;entryDx=0;entryDy=0;startArrow=none;startFill=0;endArrow=classic;endFill=1;" edge="1" parent="1" source="3" target="ShL6OGzyEPJJIIMobuB--70">
                    <mxGeometry relative="1" as="geometry"/>
                </mxCell>
                <mxCell id="3" value="Session&lt;br&gt;(a.k.a. Topics)" style="rounded=0;whiteSpace=wrap;html=1;fillColor=#008a00;fontColor=#ffffff;strokeColor=#005700;" parent="1" vertex="1">
                    <mxGeometry x="240" y="140" width="120" height="60" as="geometry"/>
                </mxCell>
                <mxCell id="10" value="Include 0..n" style="edgeStyle=none;html=1;" parent="1" source="6" target="9" edge="1">
                    <mxGeometry relative="1" as="geometry"/>
                </mxCell>
                <mxCell id="25" value="Last Open 1..1" style="edgeStyle=none;html=1;startArrow=classic;startFill=1;endArrow=none;endFill=0;" parent="1" source="6" target="24" edge="1">
                    <mxGeometry relative="1" as="geometry"/>
                </mxCell>
                <mxCell id="6" value="Anchor Context" style="whiteSpace=wrap;html=1;rounded=0;fillColor=#008a00;fontColor=#ffffff;strokeColor=#005700;" parent="1" vertex="1">
                    <mxGeometry x="-150" y="353" width="120" height="60" as="geometry"/>
                </mxCell>
                <mxCell id="9" value="Context&lt;br&gt;(Additional,&lt;br&gt;Required or Optional)" style="whiteSpace=wrap;html=1;rounded=0;fillColor=#008a00;fontColor=#ffffff;strokeColor=#005700;" parent="1" vertex="1">
                    <mxGeometry x="-150" y="493" width="120" height="60" as="geometry"/>
                </mxCell>
                <mxCell id="ShL6OGzyEPJJIIMobuB--65" value="Connect with 1..1" style="edgeStyle=none;html=1;" edge="1" parent="1" source="19" target="ShL6OGzyEPJJIIMobuB--64">
                    <mxGeometry relative="1" as="geometry"/>
                </mxCell>
                <mxCell id="ShL6OGzyEPJJIIMobuB--67" value="Associate with 1..n" style="edgeStyle=none;html=1;" edge="1" parent="1" source="19" target="ShL6OGzyEPJJIIMobuB--66">
                    <mxGeometry relative="1" as="geometry"/>
                </mxCell>
                <mxCell id="19" value="Subscriber" style="whiteSpace=wrap;html=1;rounded=0;fontStyle=1;fillColor=#008a00;fontColor=#ffffff;strokeColor=#005700;" parent="1" vertex="1">
                    <mxGeometry x="-50" y="90" width="120" height="60" as="geometry"/>
                </mxCell>
                <mxCell id="24" value="Current Context" style="whiteSpace=wrap;html=1;rounded=0;fillColor=#008a00;fontColor=#ffffff;strokeColor=#005700;" parent="1" vertex="1">
                    <mxGeometry x="110" y="353" width="120" height="60" as="geometry"/>
                </mxCell>
                <mxCell id="50" value="Contain 0..n" style="edgeStyle=none;html=1;exitX=0.5;exitY=0;exitDx=0;exitDy=0;entryX=0.75;entryY=1;entryDx=0;entryDy=0;startArrow=classic;startFill=1;endArrow=none;endFill=0;" parent="1" source="26" target="3" edge="1">
                    <mxGeometry relative="1" as="geometry"/>
                </mxCell>
                <mxCell id="52" value="Reference 1..1" style="edgeStyle=none;html=1;exitX=0.25;exitY=1;exitDx=0;exitDy=0;entryX=1;entryY=1;entryDx=0;entryDy=0;startArrow=none;startFill=0;endArrow=classic;endFill=1;" parent="1" source="26" target="6" edge="1">
                    <mxGeometry relative="1" as="geometry">
                        <Array as="points">
                            <mxPoint x="410" y="483"/>
                            <mxPoint x="90" y="483"/>
                        </Array>
                    </mxGeometry>
                </mxCell>
                <mxCell id="53" value="Reference 0..n" style="edgeStyle=none;html=1;entryX=1;entryY=0.5;entryDx=0;entryDy=0;startArrow=none;startFill=0;endArrow=classic;endFill=1;exitX=0.808;exitY=1.025;exitDx=0;exitDy=0;exitPerimeter=0;" parent="1" source="26" target="9" edge="1">
                    <mxGeometry relative="1" as="geometry">
                        <Array as="points">
                            <mxPoint x="477" y="523"/>
                        </Array>
                    </mxGeometry>
                </mxCell>
                <mxCell id="57" value="Hub" style="text;html=1;strokeColor=none;fillColor=none;align=center;verticalAlign=middle;whiteSpace=wrap;rounded=0;" parent="1" vertex="1">
                    <mxGeometry x="-410" y="-110" width="60" height="30" as="geometry"/>
                </mxCell>
                <mxCell id="ShL6OGzyEPJJIIMobuB--71" value="Reference 1..1" style="edgeStyle=none;html=1;startArrow=classic;startFill=1;endArrow=none;endFill=0;" edge="1" parent="1" source="26" target="ShL6OGzyEPJJIIMobuB--70">
                    <mxGeometry relative="1" as="geometry"/>
                </mxCell>
                <mxCell id="26" value="Content" style="whiteSpace=wrap;html=1;rounded=0;fillColor=#008a00;fontColor=#ffffff;strokeColor=#005700;" parent="1" vertex="1">
                    <mxGeometry x="380" y="353" width="120" height="60" as="geometry"/>
                </mxCell>
                <mxCell id="59" value="Context&lt;span style=&quot;color: rgba(0 , 0 , 0 , 0) ; font-family: monospace ; font-size: 0px&quot;&gt;%3CmxGraphModel%3E%3Croot%3E%3CmxCell%20id%3D%220%22%2F%3E%3CmxCell%20id%3D%221%22%20parent%3D%220%22%2F%3E%3CmxCell%20id%3D%222%22%20value%3D%22%22%20style%3D%22rounded%3D0%3BwhiteSpace%3Dwrap%3Bhtml%3D1%3BfillColor%3Dnone%3B%22%20vertex%3D%221%22%20parent%3D%221%22%3E%3CmxGeometry%20x%3D%22-330%22%20y%3D%22-80%22%20width%3D%22740%22%20height%3D%22130%22%20as%3D%22geometry%22%2F%3E%3C%2FmxCell%3E%3CmxCell%20id%3D%223%22%20value%3D%22Activity%22%20style%3D%22text%3Bhtml%3D1%3BstrokeColor%3Dnone%3BfillColor%3Dnone%3Balign%3Dcenter%3BverticalAlign%3Dmiddle%3BwhiteSpace%3Dwrap%3Brounded%3D0%3B%22%20vertex%3D%221%22%20parent%3D%221%22%3E%3CmxGeometry%20x%3D%22-330%22%20y%3D%22-80%22%20width%3D%2260%22%20height%3D%2230%22%20as%3D%22geometry%22%2F%3E%3C%2FmxCell%3E%3C%2Froot%3E%3C%2FmxGraphModel%3E&lt;/span&gt;" style="text;html=1;strokeColor=none;fillColor=none;align=center;verticalAlign=middle;whiteSpace=wrap;rounded=0;" parent="1" vertex="1">
                    <mxGeometry x="-500" y="313" width="60" height="30" as="geometry"/>
                </mxCell>
                <mxCell id="61" value="Content" style="text;html=1;strokeColor=none;fillColor=none;align=center;verticalAlign=middle;whiteSpace=wrap;rounded=0;" parent="1" vertex="1">
                    <mxGeometry x="330" y="313" width="60" height="30" as="geometry"/>
                </mxCell>
                <mxCell id="ShL6OGzyEPJJIIMobuB--64" value="Websocket URL" style="whiteSpace=wrap;html=1;fillColor=#008a00;strokeColor=#005700;fontColor=#ffffff;rounded=0;fontStyle=1;" vertex="1" parent="1">
                    <mxGeometry x="-310" y="90" width="120" height="60" as="geometry"/>
                </mxCell>
                <mxCell id="ShL6OGzyEPJJIIMobuB--66" value="Event Subscription" style="whiteSpace=wrap;html=1;fillColor=#008a00;strokeColor=#005700;fontColor=#ffffff;rounded=0;fontStyle=1;" vertex="1" parent="1">
                    <mxGeometry x="-50" y="-50" width="120" height="60" as="geometry"/>
                </mxCell>
                <mxCell id="ShL6OGzyEPJJIIMobuB--70" value="Selected Content" style="whiteSpace=wrap;html=1;fillColor=#008a00;strokeColor=#005700;fontColor=#ffffff;rounded=0;" vertex="1" parent="1">
                    <mxGeometry x="610" y="353" width="120" height="60" as="geometry"/>
                </mxCell>
                <mxCell id="Kga4_0DMdmYmjc2Gxt2p-61" value="Topic 12345" style="text;strokeColor=none;align=center;fillColor=none;html=1;verticalAlign=middle;whiteSpace=wrap;rounded=0;" vertex="1" parent="1">
                    <mxGeometry x="365" y="155" width="60" height="30" as="geometry"/>
                </mxCell>
                <mxCell id="Kga4_0DMdmYmjc2Gxt2p-67" value="" style="group" vertex="1" connectable="0" parent="1">
                    <mxGeometry x="-470" y="353" width="140" height="217.25" as="geometry"/>
                </mxCell>
                <mxCell id="Kga4_0DMdmYmjc2Gxt2p-66" value="" style="whiteSpace=wrap;html=1;fillColor=none;" vertex="1" parent="Kga4_0DMdmYmjc2Gxt2p-67">
                    <mxGeometry width="140" height="217" as="geometry"/>
                </mxCell>
                <mxCell id="Kga4_0DMdmYmjc2Gxt2p-64" value="patient -&lt;br&gt;Patient 222&lt;br&gt;&lt;br&gt;study - ImagingStudy 333" style="text;strokeColor=none;align=center;fillColor=none;html=1;verticalAlign=middle;whiteSpace=wrap;rounded=0;" vertex="1" parent="Kga4_0DMdmYmjc2Gxt2p-67">
                    <mxGeometry x="15" y="124.25" width="110" height="93" as="geometry"/>
                </mxCell>
                <mxCell id="Kga4_0DMdmYmjc2Gxt2p-65" value="report - DiagnosticReport 111" style="text;strokeColor=none;align=center;fillColor=none;html=1;verticalAlign=middle;whiteSpace=wrap;rounded=0;" vertex="1" parent="Kga4_0DMdmYmjc2Gxt2p-67">
                    <mxGeometry x="10" y="15" width="120" height="30" as="geometry"/>
                </mxCell>
                <mxCell id="Kga4_0DMdmYmjc2Gxt2p-68" value="" style="group" vertex="1" connectable="0" parent="1">
                    <mxGeometry x="-310" y="353" width="140" height="217.25" as="geometry"/>
                </mxCell>
                <mxCell id="Kga4_0DMdmYmjc2Gxt2p-69" value="" style="whiteSpace=wrap;html=1;fillColor=none;" vertex="1" parent="Kga4_0DMdmYmjc2Gxt2p-68">
                    <mxGeometry width="140" height="217" as="geometry"/>
                </mxCell>
                <mxCell id="Kga4_0DMdmYmjc2Gxt2p-70" value="patient -&lt;br&gt;Patient yyy&lt;br&gt;&lt;br&gt;study - ImagingStudy zzz" style="text;strokeColor=none;align=center;fillColor=none;html=1;verticalAlign=middle;whiteSpace=wrap;rounded=0;" vertex="1" parent="Kga4_0DMdmYmjc2Gxt2p-68">
                    <mxGeometry x="15" y="124.25" width="110" height="93" as="geometry"/>
                </mxCell>
                <mxCell id="Kga4_0DMdmYmjc2Gxt2p-71" value="report - DiagnosticReport xxx" style="text;strokeColor=none;align=center;fillColor=none;html=1;verticalAlign=middle;whiteSpace=wrap;rounded=0;" vertex="1" parent="Kga4_0DMdmYmjc2Gxt2p-68">
                    <mxGeometry x="10" y="15" width="120" height="30" as="geometry"/>
                </mxCell>
                <mxCell id="Kga4_0DMdmYmjc2Gxt2p-76" value="report - DiagnosticReport xxx" style="text;strokeColor=none;align=center;fillColor=none;html=1;verticalAlign=middle;whiteSpace=wrap;rounded=0;" vertex="1" parent="1">
                    <mxGeometry x="110" y="423" width="120" height="30" as="geometry"/>
                </mxCell>
                <mxCell id="Kga4_0DMdmYmjc2Gxt2p-77" value="Observation&amp;nbsp; 777&lt;br&gt;ImagingSelection 888" style="text;strokeColor=none;align=center;fillColor=none;html=1;verticalAlign=middle;whiteSpace=wrap;rounded=0;" vertex="1" parent="1">
                    <mxGeometry x="370" y="423" width="140" height="30" as="geometry"/>
                </mxCell>
                <mxCell id="Kga4_0DMdmYmjc2Gxt2p-78" value="Observation&amp;nbsp; 777" style="text;strokeColor=none;align=center;fillColor=none;html=1;verticalAlign=middle;whiteSpace=wrap;rounded=0;" vertex="1" parent="1">
                    <mxGeometry x="600" y="420" width="140" height="30" as="geometry"/>
                </mxCell>
                <mxCell id="Kga4_0DMdmYmjc2Gxt2p-79" value="Subscriber Name - RadPACS1" style="text;strokeColor=none;align=center;fillColor=none;html=1;verticalAlign=middle;whiteSpace=wrap;rounded=0;" vertex="1" parent="1">
                    <mxGeometry x="-45" y="160" width="110" height="30" as="geometry"/>
                </mxCell>
                <mxCell id="Kga4_0DMdmYmjc2Gxt2p-80" value="DiagnosticReport-*&lt;br&gt;SyncError" style="text;strokeColor=none;align=center;fillColor=none;html=1;verticalAlign=middle;whiteSpace=wrap;rounded=0;" vertex="1" parent="1">
                    <mxGeometry x="-45" y="-90" width="110" height="30" as="geometry"/>
                </mxCell>
                <mxCell id="Kga4_0DMdmYmjc2Gxt2p-81" value="wss://myhub.example.com/ap98djkckbvjnxi8rfasd" style="text;strokeColor=none;align=center;fillColor=none;html=1;verticalAlign=middle;whiteSpace=wrap;rounded=0;" vertex="1" parent="1">
                    <mxGeometry x="-305" y="50" width="110" height="30" as="geometry"/>
                </mxCell>
            </root>
        </mxGraphModel>
    </diagram>
    <diagram id="REENpzGBm39CdS1Fk5RU" name="Interaction Model">
        <mxGraphModel dx="1494" dy="1529" grid="1" gridSize="10" guides="1" tooltips="1" connect="1" arrows="1" fold="1" page="1" pageScale="1" pageWidth="850" pageHeight="1100" math="0" shadow="0">
            <root>
                <mxCell id="0"/>
                <mxCell id="1" parent="0"/>
                <mxCell id="uQy_RtOWi2RNMos_5whO-5" value="Subscriber" style="whiteSpace=wrap;html=1;rounded=1;fillColor=#65b8e2;fontColor=#ffffff;strokeColor=#006EAF;" vertex="1" parent="1">
                    <mxGeometry x="305" y="-80" width="195" height="200" as="geometry"/>
                </mxCell>
                <mxCell id="uQy_RtOWi2RNMos_5whO-6" value="Send 1..1" style="edgeStyle=none;html=1;exitX=1;exitY=0.5;exitDx=0;exitDy=0;entryX=0;entryY=0.5;entryDx=0;entryDy=0;startArrow=none;startFill=0;endArrow=classic;endFill=1;" edge="1" parent="1" source="CS6DWMl4JMOBhloM0IUo-4" target="uQy_RtOWi2RNMos_5whO-5">
                    <mxGeometry relative="1" as="geometry"/>
                </mxCell>
                <mxCell id="CS6DWMl4JMOBhloM0IUo-4" value="Hub" style="rounded=1;whiteSpace=wrap;html=1;fillColor=#1ba1e2;fontColor=#ffffff;strokeColor=#006EAF;" vertex="1" parent="1">
                    <mxGeometry y="-10" width="120" height="60" as="geometry"/>
                </mxCell>
                <mxCell id="CS6DWMl4JMOBhloM0IUo-5" value="Publish 0..n" style="edgeStyle=none;html=1;exitX=1;exitY=0.5;exitDx=0;exitDy=0;startArrow=none;startFill=0;endArrow=classic;endFill=1;entryX=0;entryY=0.25;entryDx=0;entryDy=0;" edge="1" parent="1" source="CS6DWMl4JMOBhloM0IUo-6" target="CS6DWMl4JMOBhloM0IUo-4">
                    <mxGeometry relative="1" as="geometry">
                        <mxPoint x="-10" y="60" as="targetPoint"/>
                    </mxGeometry>
                </mxCell>
                <mxCell id="uQy_RtOWi2RNMos_5whO-8" value="Launch 0..n" style="edgeStyle=none;html=1;entryX=0.5;entryY=0;entryDx=0;entryDy=0;startArrow=none;startFill=0;endArrow=classic;endFill=1;" edge="1" parent="1" source="CS6DWMl4JMOBhloM0IUo-6" target="uQy_RtOWi2RNMos_5whO-4">
                    <mxGeometry relative="1" as="geometry">
                        <Array as="points">
                            <mxPoint x="-240" y="-160"/>
                            <mxPoint x="80" y="-160"/>
                            <mxPoint x="403" y="-160"/>
                        </Array>
                    </mxGeometry>
                </mxCell>
                <mxCell id="CS6DWMl4JMOBhloM0IUo-6" value="Driving Application" style="whiteSpace=wrap;html=1;rounded=1;fillColor=#1ba1e2;fontColor=#ffffff;strokeColor=#006EAF;" vertex="1" parent="1">
                    <mxGeometry x="-300" y="-70" width="120" height="60" as="geometry"/>
                </mxCell>
                <mxCell id="CS6DWMl4JMOBhloM0IUo-10" value="Context Event" style="whiteSpace=wrap;html=1;rounded=0;fillColor=#008a00;fontColor=#ffffff;strokeColor=#005700;" vertex="1" parent="1">
                    <mxGeometry x="-130" y="-100" width="120" height="60" as="geometry"/>
                </mxCell>
                <mxCell id="uQy_RtOWi2RNMos_5whO-2" value="Publish 0..n" style="edgeStyle=none;html=1;exitX=1;exitY=0.5;exitDx=0;exitDy=0;entryX=0;entryY=0.75;entryDx=0;entryDy=0;startArrow=none;startFill=0;endArrow=classic;endFill=1;" edge="1" parent="1" source="uQy_RtOWi2RNMos_5whO-1" target="CS6DWMl4JMOBhloM0IUo-4">
                    <mxGeometry relative="1" as="geometry"/>
                </mxCell>
                <mxCell id="uQy_RtOWi2RNMos_5whO-1" value="Report Content Creator" style="whiteSpace=wrap;html=1;rounded=1;fillColor=#1ba1e2;fontColor=#ffffff;strokeColor=#006EAF;" vertex="1" parent="1">
                    <mxGeometry x="-300" y="70" width="120" height="60" as="geometry"/>
                </mxCell>
                <mxCell id="uQy_RtOWi2RNMos_5whO-3" value="Content Event" style="whiteSpace=wrap;html=1;rounded=0;fillColor=#008a00;fontColor=#ffffff;strokeColor=#005700;" vertex="1" parent="1">
                    <mxGeometry x="-130" y="100" width="120" height="60" as="geometry"/>
                </mxCell>
                <mxCell id="uQy_RtOWi2RNMos_5whO-7" value="Any Event" style="whiteSpace=wrap;html=1;rounded=0;fillColor=#008a00;fontColor=#ffffff;strokeColor=#005700;" vertex="1" parent="1">
                    <mxGeometry x="150" y="-70" width="120" height="60" as="geometry"/>
                </mxCell>
                <mxCell id="uQy_RtOWi2RNMos_5whO-4" value="Synchronizing Application" style="whiteSpace=wrap;html=1;rounded=1;fillColor=#1ba1e2;fontColor=#ffffff;strokeColor=#006EAF;" vertex="1" parent="1">
                    <mxGeometry x="342.5" y="-60" width="120" height="60" as="geometry"/>
                </mxCell>
            </root>
        </mxGraphModel>
    </diagram>
</mxfile>